<?xml version="1.0" standalone="no"?>
<!DOCTYPE svg PUBLIC "-//W3C//DTD SVG 20010904//EN"
 "http://www.w3.org/TR/2001/REC-SVG-20010904/DTD/svg10.dtd">
<svg version="1.0" xmlns="http://www.w3.org/2000/svg"
 width="700.000000pt" height="700.000000pt" viewBox="0 0 700.000000 700.000000"
 preserveAspectRatio="xMidYMid meet">
<metadata>
Created by potrace 1.11, written by Peter Selinger 2001-2013
</metadata>
<g transform="translate(0.000000,700.000000) scale(0.100000,-0.100000)"
fill="#000000" stroke="none">
<path d="M3360 5679 c-25 -4 -65 -10 -90 -14 -83 -12 -259 -77 -348 -128 -84
-48 -161 -103 -231 -167 l-35 -31 74 -74 c41 -41 78 -75 82 -75 4 0 20 12 35
26 101 96 259 181 412 221 133 36 333 37 465 5 156 -39 318 -123 419 -217 21
-19 41 -35 45 -35 4 0 41 33 81 74 l74 74 -34 32 c-157 147 -374 257 -588 296
-92 18 -287 25 -361 13z"/>
<path d="M3368 5260 c-54 -9 -136 -34 -188 -57 -45 -20 -155 -92 -198 -129
l-33 -29 79 -78 78 -78 30 26 c158 138 405 174 593 88 41 -19 116 -68 146 -95
19 -18 21 -17 97 59 l77 77 -37 34 c-80 73 -227 150 -317 168 -135 26 -230 30
-327 14z"/>
<path d="M1016 4918 c-88 -8 -176 -51 -243 -117 -45 -44 -78 -104 -278 -503
-126 -249 -238 -482 -251 -518 -31 -92 -29 -277 6 -365 66 -170 196 -290 364
-335 83 -23 215 -18 303 11 139 45 225 130 358 352 l100 167 430 0 430 0 100
-168 c117 -195 184 -270 287 -320 207 -100 430 -69 595 82 68 62 102 112 138
201 24 59 29 87 32 181 2 78 -2 127 -13 165 -8 30 -121 267 -251 527 -205 411
-242 479 -285 522 -57 58 -151 106 -226 116 -69 9 -1506 11 -1596 2z m1579
-222 c17 -4 47 -19 67 -33 33 -22 64 -79 268 -485 l231 -461 6 -82 c8 -111
-13 -178 -78 -250 -65 -70 -129 -98 -229 -99 -63 0 -84 5 -134 29 -77 39 -106
75 -234 291 -69 118 -118 189 -138 203 -30 21 -36 21 -549 21 -458 -1 -521 -3
-545 -17 -18 -10 -72 -89 -152 -222 -164 -270 -209 -307 -374 -304 -115 1
-215 67 -265 172 -29 62 -38 162 -21 230 16 62 439 913 476 955 52 62 44 61
881 60 419 0 774 -4 790 -8z"/>
<path d="M2388 4592 c-15 -2 -41 -17 -58 -33 -82 -83 10 -219 118 -173 115 48
64 223 -60 206z"/>
<path d="M1094 4433 c3 -58 0 -60 -61 -58 -24 1 -44 -1 -44 -4 -8 -32 -3 -211
6 -212 5 -1 29 -1 53 -1 24 0 42 -5 43 -12 1 -6 1 -30 2 -53 l0 -43 41 -1
c102 -2 170 2 176 12 4 5 5 27 3 48 -4 44 3 49 64 47 l42 -2 3 108 c2 67 -1
109 -7 109 -5 1 -26 3 -45 4 -19 1 -41 3 -48 4 -8 1 -12 15 -11 44 1 23 1 47
0 52 0 6 -45 10 -110 10 l-109 0 2 -52z"/>
<path d="M1644 4371 c-2 -2 -4 -50 -4 -107 0 -73 4 -103 13 -106 10 -3 171 -2
200 1 4 1 6 49 5 108 l-3 108 -103 0 c-57 0 -105 -1 -108 -4z"/>
<path d="M2170 4373 c-98 -28 -122 -138 -44 -196 73 -54 181 13 168 104 -9 55
-76 105 -124 92z"/>
<path d="M2594 4369 c-84 -23 -104 -139 -33 -190 60 -43 142 -17 165 52 28 84
-45 161 -132 138z"/>
<path d="M2364 4145 c-43 -18 -64 -51 -64 -100 0 -103 136 -144 194 -59 60 89
-31 202 -130 159z"/>
<path d="M4355 4910 c-33 -8 -82 -28 -110 -44 -102 -60 -117 -84 -369 -589
-133 -266 -242 -498 -251 -532 -10 -38 -15 -94 -14 -150 3 -116 12 -149 67
-265 26 -54 149 -172 217 -207 126 -66 301 -76 428 -26 142 57 210 125 342
346 l100 167 430 0 430 0 70 -116 c39 -64 77 -128 85 -143 101 -179 271 -284
460 -284 115 -1 151 7 245 52 108 53 195 140 245 248 56 118 66 284 25 409
-12 38 -124 272 -248 520 -200 398 -233 458 -278 503 -59 59 -125 96 -201 112
-35 8 -299 12 -832 13 -666 1 -790 -1 -841 -14z m1648 -219 c20 -7 51 -26 67
-43 34 -34 461 -877 480 -947 32 -119 2 -243 -77 -325 -86 -89 -239 -118 -347
-66 -78 38 -115 83 -241 292 -95 158 -125 200 -151 213 -48 22 -1030 23 -1078
0 -25 -12 -57 -57 -155 -220 -134 -223 -167 -261 -261 -294 -73 -26 -160 -22
-230 11 -31 13 -62 32 -70 40 -89 91 -114 156 -108 275 l4 83 228 455 c147
296 238 466 258 485 28 27 65 44 112 52 11 2 360 3 775 2 570 -1 766 -4 794
-13z"/>
<path d="M5734 4572 c-72 -58 -53 -168 33 -191 113 -31 188 117 96 189 -32 25
-100 26 -129 2z"/>
<path d="M4484 4430 l1 -55 -55 0 -55 0 0 -108 c0 -65 4 -108 10 -108 5 -1 30
-2 54 -3 l45 -1 2 -45 c1 -25 2 -49 3 -55 0 -6 42 -10 103 -9 90 0 102 3 108
20 4 10 6 28 4 39 -7 44 4 53 56 50 56 -3 51 -14 51 110 0 125 5 114 -51 111
-56 -3 -60 1 -57 69 l1 39 -110 1 -110 0 0 -55z"/>
<path d="M5033 4364 c-2 -6 -2 -55 -1 -109 l3 -99 90 -1 c135 -1 125 -10 125
114 l0 106 -106 0 c-67 0 -108 -4 -111 -11z"/>
<path d="M5530 4362 c-81 -39 -80 -150 2 -191 121 -60 216 111 103 185 -33 22
-68 24 -105 6z"/>
<path d="M5981 4366 c-113 -37 -86 -208 33 -208 133 0 148 192 18 217 -9 1
-32 -2 -51 -9z"/>
<path d="M5763 4149 c-65 -19 -93 -97 -56 -159 19 -33 52 -50 96 -50 85 0 134
109 78 174 -13 16 -73 48 -83 45 -2 0 -17 -5 -35 -10z"/>
<path d="M3393 4822 c-54 -19 -133 -67 -133 -80 0 -4 33 -40 74 -81 l73 -73
31 16 c39 20 85 20 124 0 l31 -16 76 76 76 77 -25 20 c-85 69 -229 96 -327 61z"/>
<path d="M928 2827 c-53 -32 -54 -38 -53 -539 1 -501 0 -489 56 -522 21 -12
55 -16 148 -16 67 0 121 -3 122 -7 0 -5 2 -87 3 -183 1 -96 6 -182 10 -190 4
-8 19 -24 34 -35 27 -20 43 -20 2254 -20 l2228 0 32 33 33 32 0 185 0 185 118
0 c128 0 170 11 197 52 12 19 14 100 15 483 1 253 -3 472 -8 488 -5 15 -23 37
-40 49 l-32 23 -2544 0 c-2416 0 -2545 -1 -2573 -18z m3447 -529 l0 -328
-1641 0 -1641 0 2 328 c1 180 3 327 4 327 0 0 738 0 1638 0 l1638 0 0 -327z
m1527 322 c0 -3 2 -150 3 -327 l1 -323 -656 0 -656 0 1 328 c1 180 3 327 4
327 91 3 1301 -1 1303 -5z m-323 -980 l0 -110 -2080 0 -2079 0 1 110 2 110
2078 0 2078 0 0 -110z"/>
<path d="M1315 2400 c-2 -3 -4 -52 -3 -108 l0 -102 71 0 c40 0 334 -1 654 -3
510 -2 582 0 585 13 2 8 4 58 3 110 l0 95 -653 1 c-359 0 -655 -2 -657 -6z"/>
<path d="M2849 2401 c-1 -3 -3 -52 -4 -108 l-2 -103 31 -1 c102 -2 179 0 183
5 5 5 7 88 4 177 l-1 36 -105 0 c-58 1 -106 -2 -106 -6z"/>
<path d="M4811 2299 l0 -107 67 -4 c37 -2 86 -2 110 0 l42 3 0 108 0 108 -110
0 -109 -1 0 -107z"/>
<path d="M5250 2299 l0 -109 25 -1 c14 0 54 0 90 0 36 0 74 0 85 0 19 1 20 8
20 109 l0 108 -110 1 -110 1 0 -109z"/>
</g>
</svg>
