<?xml version="1.0" ?><svg enable-background="new 0 0 24 24" id="Layer_1" version="1.1" viewBox="0 0 24 24"
    xml:space="preserve" xmlns="http://www.w3.org/2000/svg" xmlns:xlink="http://www.w3.org/1999/xlink">
    <path
        d="M11.5,5.4998851  c0,0,5.5801792,9.6045036,6.5,13c0.9244804,3.412693-3.9999018,5-3.9999018,5c3.9978857,0.0177937,4.500001-1,6.000001-2  s3.4999008-1,3.4999008-1c-1.5-2,0-5.000001,0-5.000001s-0.5000992,0.9985304-2,0.9985304  c-1.5000992,0-2.4999008-1.9985304-2.4999008-1.9985304l-7.000001-14L5,14.4998846c0,0-1,2.000001-2.5,2.000001  s-2-1.000001-2-1.000001s1.5,3.000001,0,5.000001c0,0,2,0,3.5,1s2.0021138,2.0177937,6,2c0,0-4.92448-1.587307-4-5  C6.9528885,14.9823217,11.5,5.4998851,11.5,5.4998851z"
        fill="none" stroke="#E8ECF0" stroke-linecap="round" stroke-linejoin="round" stroke-miterlimit="10" />
    <g />
    <g />
    <g />
    <g />
    <g />
    <g />
    <g />
    <g />
    <g />
    <g />
    <g />
    <g />
    <g />
    <g />
    <g />
</svg>