<?xml version="1.0" ?><svg enable-background="new 0 0 24 24" id="Layer_1" version="1.1" viewBox="0 0 24 24"
	xml:space="preserve" xmlns="http://www.w3.org/2000/svg" xmlns:xlink="http://www.w3.org/1999/xlink">
	<g>
		<path d="M8.5,2.5   c0,0.5522847-0.4477148,1-1,1s-1-0.4477153-1-1s1-2,1-2S8.5,1.9477153,8.5,2.5z" fill="none"
			stroke="#66E0F8" stroke-linecap="round" stroke-linejoin="round" stroke-miterlimit="10" />
		<path d="M10.5,16   c0,0-0.666667,1.5-2,1.5s-2-1.5-2-1.5s0.6666665-1.5,2-1.5S10.5,16,10.5,16z" fill="none"
			stroke="#66E0F8" stroke-linecap="round" stroke-linejoin="round" stroke-miterlimit="10" />
		<circle cx="8.5" cy="16" fill="none" r="0.5" stroke="#66E0F8" stroke-miterlimit="10" />
		<path d="M17.5,16   c0,0-0.666666,1.5-2,1.5s-2-1.5-2-1.5s0.666667-1.5,2-1.5S17.5,16,17.5,16z" fill="none"
			stroke="#66E0F8" stroke-linecap="round" stroke-linejoin="round" stroke-miterlimit="10" />
		<circle cx="15.5" cy="16" fill="none" r="0.5" stroke="#66E0F8" stroke-miterlimit="10" />
		<path
			d="M3.5,6.5   c0,0,0,1.5,0.5,2.5c1.1439843,2.2879686,0.8551159,5.7476501,1.5,8.5c1.0543642,4.5,3.4650888,6,6.5,6s5.4456367-1.5,6.5-6   c0.6448841-2.7523499,0.3560162-6.2120314,1.5-8.5c0.5-1,0.5-2.5,0.5-2.5V5L19,4l-2,2l-1-3l-2.5-0.5l-1,3L11,4L9.5,4.5L7.5,7l-2-2   L3.5,6.5"
			fill="none" stroke="#66E0F8" stroke-linecap="round" stroke-linejoin="round" stroke-miterlimit="10" />
		<path
			d="M10,20c0,0.5857372,0.8955059,1.5,1.9999104,1.5C13.1044941,21.5,14,20.5857372,14,20   c0-0.2928333-0.9997559,0.0000362-1.9996338,0C11.0002441,19.9999638,10,19.7070961,10,20z"
			fill="#66E0F8" />
		<path d="M7.5,3.5   c0,1,1,2,1,2" fill="none" stroke="#66E0F8" stroke-linecap="round" stroke-linejoin="round"
			stroke-miterlimit="10" />
		<path
			d="   M19.833334,2.4999998c-0.3681908,0.3681898-0.9651432,0.3681898-1.333334,0c-0.3681889-0.3681898-0.3681889-0.9651433,0-1.3333331   C18.8681908,0.7984768,20.5,0.5,20.5,0.5S20.2015228,2.1318099,19.833334,2.4999998z"
			fill="none" stroke="#66E0F8" stroke-linecap="round" stroke-linejoin="round" stroke-miterlimit="10" />
		<path d="M18.5,2.4999998   C17.4991455,3,17,4.875,17,5.5" fill="none" stroke="#66E0F8" stroke-linecap="round"
			stroke-linejoin="round" stroke-miterlimit="10" />
		<polyline fill="none" points="12.5,5.5    13.5,7 12.5,9 13.4992323,10.5007677  " stroke="#66E0F8"
			stroke-linecap="round" stroke-linejoin="round" stroke-miterlimit="10" />
		<polyline fill="none" points="17,6    17,7.5 17.5,9 16.5,10.5  " stroke="#66E0F8" stroke-linecap="round"
			stroke-linejoin="round" stroke-miterlimit="10" />
		<polyline fill="none" points="7.5,7 8,8    7.5,9 8.5,10.5  " stroke="#66E0F8" stroke-linecap="round"
			stroke-linejoin="round" stroke-miterlimit="10" />
	</g>
	<g />
	<g />
	<g />
	<g />
	<g />
	<g />
	<g />
	<g />
	<g />
	<g />
	<g />
	<g />
	<g />
	<g />
	<g />
</svg>