<?xml version="1.0" ?><svg enable-background="new 0 0 24 24" id="Layer_1" version="1.1" viewBox="0 0 24 24"
    xml:space="preserve" xmlns="http://www.w3.org/2000/svg" xmlns:xlink="http://www.w3.org/1999/xlink">
    <path
        d="M16.5,16.5  c-7-3-9,3-9,3c-5.5-2-7,4-7,4c0-9.5,4-13,4-13s-1,3,2,3s1.9998684-4.5,0-5h0.2928939  c0.4527526,0,0.8869615-0.1798553,1.2071056-0.499999L8.000001,7.9999995C8.3201447,7.6798553,8.5,7.2456465,8.5,6.7928939V6.5  c0.5,1.9998684,5,3,5,0s-3-2-3-2s3.5-4,13-4c0,0-6,1.5-4,7C19.5,7.5,13.5,9.5,16.5,16.5"
        fill="none" stroke="#41BFB3" stroke-linecap="round" stroke-linejoin="round" stroke-miterlimit="10" />
    <g />
    <g />
    <g />
    <g />
    <g />
    <g />
    <g />
    <g />
    <g />
    <g />
    <g />
    <g />
    <g />
    <g />
    <g />
</svg>