<?xml version="1.0" encoding="utf-8"?>
<!-- Generator: Adobe Illustrator 23.0.1, SVG Export Plug-In . SVG Version: 6.00 Build 0)  -->
<svg version="1.1" id="Слой_1" xmlns:sketch="http://www.bohemiancoding.com/sketch/ns"
	 xmlns="http://www.w3.org/2000/svg" xmlns:xlink="http://www.w3.org/1999/xlink" x="0px" y="0px" viewBox="0 0 50 50"
	 style="enable-background:new 0 0 50 50;" xml:space="preserve">
<style type="text/css">
	.st0{fill-rule:evenodd;clip-rule:evenodd;fill:#0099FF;}
</style>
<title></title>
<g id="Page-1">
	<g id="Facebook">
		<path id="Oval-1" class="st0" d="M25,50c13.8,0,25-11.2,25-25S38.8,0,25,0S0,11.2,0,25S11.2,50,25,50z M25,45.6
			c11.3,0,20.5-9.2,20.5-20.5S36.3,4.7,25,4.7S4.5,13.8,4.5,25.1S13.7,45.6,25,45.6z M27.1,38V25.1h3.8l0.5-4.4h-4.3l0-2.2
			c0-1.2,0.1-1.8,1.9-1.8h2.4v-4.4h-3.8c-4.6,0-6.2,2.2-6.2,5.8v2.7h-2.8v4.4h2.8V38H27.1z"/>
	</g>
</g>
</svg>
