<?xml version="1.0"?>
<svg xmlns="http://www.w3.org/2000/svg" xmlns:xlink="http://www.w3.org/1999/xlink" viewBox="0 0 512 512" width="512"
    height="512">
    <defs>
        <linearGradient id="linear-gradient" x1="101.457" y1="424.77" x2="410.543" y2="115.684"
            gradientUnits="userSpaceOnUse">
            <stop offset="0" stop-color="#41dfd0" />
            <stop offset="1" stop-color="#ee83ef" />
        </linearGradient>
    </defs>
    <g id="gradient">
        <path
            d="M80,208H72V192h8v-8H96v8h8v16H96v8H80Zm96-16a8,8,0,1,0-8-8A8,8,0,0,0,176,192Zm-16,16a8,8,0,1,0-8-8A8,8,0,0,0,160,208Zm32,0a8,8,0,1,0-8-8A8,8,0,0,0,192,208Zm-16,0a8,8,0,1,0,8,8A8,8,0,0,0,176,208ZM16,249.353v-2.119a38.839,38.839,0,0,1,4.08-17.283l30.684-61.368A29.835,29.835,0,0,1,77.6,152H186.4a29.835,29.835,0,0,1,26.833,16.583l30.684,61.368A38.846,38.846,0,0,1,248,247.235v2.118a38.647,38.647,0,0,1-71.787,19.884L163.471,248H100.529L87.788,269.237A38.648,38.648,0,0,1,16,249.353Zm16,0a22.648,22.648,0,0,0,42.068,11.652L89.14,235.884A8,8,0,0,1,96,232h72a8,8,0,0,1,6.86,3.884l15.073,25.121A22.647,22.647,0,0,0,232,249.353v-2.118a22.742,22.742,0,0,0-2.391-10.128l-30.683-61.368A13.927,13.927,0,0,0,186.4,168H77.6a13.927,13.927,0,0,0-12.523,7.739L34.391,237.107A22.741,22.741,0,0,0,32,247.234ZM136,192H120v16h16Zm208-8H328v8h-8v16h8v8h16v-8h8V192h-8Zm80,8a8,8,0,1,0-8-8A8,8,0,0,0,424,192Zm-16,0a8,8,0,1,0,8,8A8,8,0,0,0,408,192Zm32,0a8,8,0,1,0,8,8A8,8,0,0,0,440,192Zm-16,16a8,8,0,1,0,8,8A8,8,0,0,0,424,208Zm67.92,21.951A38.846,38.846,0,0,1,496,247.235v2.118a38.647,38.647,0,0,1-71.787,19.884L411.471,248H348.529l-12.741,21.237A38.648,38.648,0,0,1,264,249.353v-2.119a38.839,38.839,0,0,1,4.08-17.283l30.684-61.368A29.835,29.835,0,0,1,325.6,152H434.4a29.835,29.835,0,0,1,26.833,16.583ZM480,247.235a22.742,22.742,0,0,0-2.391-10.128l-30.683-61.368A13.927,13.927,0,0,0,434.4,168H325.6a13.927,13.927,0,0,0-12.523,7.739l-30.683,61.368A22.741,22.741,0,0,0,280,247.234v2.119a22.648,22.648,0,0,0,42.068,11.652l15.072-25.121A8,8,0,0,1,344,232h72a8,8,0,0,1,6.86,3.884l15.073,25.121A22.647,22.647,0,0,0,480,249.353ZM368,208h16V192H368Zm48,208H96a8,8,0,0,1-8-8V384H72a8,8,0,0,1-8-8V312a8,8,0,0,1,8-8H440a8,8,0,0,1,8,8v64a8,8,0,0,1-8,8H424v24A8,8,0,0,1,416,416Zm-80-48h96V320H336Zm-16,0V320H80v48Zm88,16H104v16H408ZM96,352h96V336H96Zm112,0h16V336H208ZM317.657,121.539a87.2,87.2,0,0,0-123.314,0l11.314,11.315a71.193,71.193,0,0,1,100.686,0Zm-21.539,21.538a56.8,56.8,0,0,0-80.236,0l11.312,11.315a40.785,40.785,0,0,1,57.612,0ZM256,157.965a25.069,25.069,0,0,0-17.841,7.389l11.315,11.315a9.227,9.227,0,0,1,13.052,0l11.315-11.315A25.069,25.069,0,0,0,256,157.965ZM384,352h16V336H384Zm-32,0h16V336H352Z"
            style="fill:url(#linear-gradient)" />
    </g>
</svg>