<?xml version="1.0" encoding="utf-8"?>
<!-- Generator: Adobe Illustrator 23.0.1, SVG Export Plug-In . SVG Version: 6.00 Build 0)  -->
<svg version="1.1" id="Слой_1" xmlns="http://www.w3.org/2000/svg" xmlns:xlink="http://www.w3.org/1999/xlink" x="0px" y="0px"
	 viewBox="0 0 512 512" style="enable-background:new 0 0 512 512;" xml:space="preserve">
<style type="text/css">
	.st0{fill:none;}
	.st1{fill:#F000F2;}
</style>
<g>
	<title>background</title>
	<rect id="canvas_background" x="-1" y="-1" class="st0" width="514" height="514"/>
</g>
<g>
	<title>Layer 1</title>
	<path id="svg_2" class="st1" d="M257.7,506.9C121,506.5,8.8,395.4,9.5,254.6C10.1,115.5,122.2,3.7,261,5.2
		c135.2,1.5,246.6,112.2,245.5,252.9C505.5,396.5,394.5,506.7,257.7,506.9L257.7,506.9z M256,42C141.5,41.6,46.1,134.9,44.9,252.7
		c-1.2,120.5,95,214.3,208.7,215.5c116.3,1.2,212.7-92.8,213.3-211.2C467.5,137.5,373.3,42,256,42L256,42z"/>
	<path id="svg_3" class="st1" d="M413.1,259.9c0,22-0.6,44,0.1,66c1.4,39-24.7,71.2-58.6,83.8c-11.3,4.2-23,6.5-35.1,6.5
		c-41.8-0.1-83.6,0.4-125.5-0.2c-35.1-0.5-62.9-15.2-81.8-45.3c-7.4-11.8-11.2-24.9-11.3-38.8c-0.2-47.8-0.6-95.6,0.1-143.5
		c0.4-30.8,16.1-53.5,41.6-69.8c16.3-10.4,34.4-14.8,53.6-14.8c41.2,0,82.3-0.3,123.5,0.1c32.4,0.4,59.1,13.2,78.4,39.7
		c9.8,13.5,15,28.8,15,45.7C413.1,212.9,413.1,236.4,413.1,259.9L413.1,259.9z M131.9,261.3c0,21.9,0,43.7,0,65.6
		c0,8.5,1.8,16.5,5.8,24.1c13,24.5,34.4,35.6,61.2,36c38.3,0.6,76.7,0.1,115,0.2c10.3,0,20.3-1.8,29.9-5.6
		c24-9.4,39.1-31.2,39.1-56.9c0-42.6,0-85.2,0-127.8c0-12.2-3.4-23.2-10.8-33c-14.1-18.7-33.3-27.4-56.2-27.6
		c-39-0.4-77.9-0.2-116.9-0.1c-8.7,0-17.1,1.7-25.3,4.6c-24,8.7-42.8,30.9-41.9,59.7C132.5,220.7,131.9,241,131.9,261.3L131.9,261.3
		z"/>
	<path id="svg_4" class="st1" d="M257.3,182c40.7,0,73.7,32.5,73.6,72.6c-0.1,39.7-33.2,72.3-73.5,72.3c-40.7,0-73.4-32.4-73.4-72.7
		C184,214.2,216.7,182,257.3,182L257.3,182z M301.9,255.6c-0.1-24-20-43.6-44.4-43.6c-24.2,0-44.4,19.9-44.4,43.7
		c0,24,20,43.4,44.6,43.4C282.4,299.1,302,279.8,301.9,255.6L301.9,255.6z"/>
	<path id="svg_5" class="st1" d="M320.2,175.1c-0.1-11.1,8.1-19.7,18.6-19.7c10.3,0,19.1,9,19,19.6c0,10.7-8.9,19.6-19.2,19.4
		C328.3,194.3,320.2,185.8,320.2,175.1L320.2,175.1z"/>
</g>
</svg>
