<?xml version="1.0" ?><svg enable-background="new 0 0 24 24" id="Layer_1" version="1.1" viewBox="0 0 24 24"
    xml:space="preserve" xmlns="http://www.w3.org/2000/svg" xmlns:xlink="http://www.w3.org/1999/xlink">
    <g>
        <path
            d="M12,20.5   c3.0686293,0,5.2901001-0.390995,6.8761482-0.8906765c2.1505337-0.6775227,3.3368626-2.9702911,2.6238537-5.1093206L21.5,14.5   c2-1,2-4,2-4c0-7-11.5-7-11.5-7s-11.5,0-11.5,7c0,0,0,3,2,4l-0.000001,0.0000029   c-0.71301,2.1390295,0.4733198,4.431798,2.6238537,5.1093206C6.7098994,20.109005,8.9313707,20.5,12,20.5z"
            fill="none" stroke="#F2CB05" stroke-linecap="round" stroke-linejoin="round" stroke-miterlimit="10" />
        <path d="   M2.499999,14.5000029C2.499999,14.5000029,6.5,15.5,12,15.5s9.5-1,9.5-1" fill="none" stroke="#F2CB05"
            stroke-linecap="round" stroke-linejoin="round" stroke-miterlimit="10" />
        <path
            d="   M8.7034016,15.383461C7.6591873,14.5587025,7,13.3486338,7,12c0-2.485281,2.2385759-4.5,5-4.5s5,2.014719,5,4.5   c0,1.348217-0.6587791,2.5579538-1.7024326,3.3826962"
            fill="none" stroke="#F2CB05" stroke-linecap="round" stroke-linejoin="round" stroke-miterlimit="10" />
        <polyline fill="none" points="9.5,13.5    10.5,9.5 12,12 13.5,9.5 14.5,13.5  " stroke="#F2CB05"
            stroke-linecap="round" stroke-linejoin="round" stroke-miterlimit="10" />
        <path d="M13.5,3.5811129   c0,0,3,1.9551764,3,6.4551764" fill="none" stroke="#F2CB05" stroke-linecap="round"
            stroke-linejoin="round" stroke-miterlimit="10" />
        <path d="M10.5,3.5811086   c0,0-3,1.9550672-3,6.4550672" fill="none" stroke="#F2CB05" stroke-linecap="round"
            stroke-linejoin="round" stroke-miterlimit="10" />
    </g>
    <g />
    <g />
    <g />
    <g />
    <g />
    <g />
    <g />
    <g />
    <g />
    <g />
    <g />
    <g />
    <g />
    <g />
    <g />
</svg>