<?xml version="1.0" encoding="utf-8"?>
<!-- Generator: Adobe Illustrator 23.0.1, SVG Export Plug-In . SVG Version: 6.00 Build 0)  -->
<svg version="1.1" id="Слой_1" xmlns:serif="http://www.serif.com/"
	 xmlns="http://www.w3.org/2000/svg" xmlns:xlink="http://www.w3.org/1999/xlink" x="0px" y="0px" viewBox="0 0 24 24"
	 style="enable-background:new 0 0 24 24;" xml:space="preserve">
<style type="text/css">
	.st0{fill-rule:evenodd;clip-rule:evenodd;fill:#FFFF47;}
</style>
<path id="telegram-5" class="st0" d="M12,0C5.4,0,0,5.4,0,12s5.4,12,12,12s12-5.4,12-12S18.6,0,12,0z M12,2c5.5,0,10,4.5,10,10
	s-4.5,10-10,10S2,17.5,2,12S6.5,2,12,2z M14.7,16.9c0.2,0.1,0.4,0.1,0.6,0.1c0.2-0.1,0.3-0.2,0.4-0.4c0.4-2,1.5-7.2,1.9-9.1
	c0-0.1,0-0.3-0.1-0.4C17.3,7,17.1,7,17,7c-2.1,0.8-8.6,3.2-11.2,4.2c-0.2,0.1-0.3,0.2-0.3,0.4s0.1,0.3,0.3,0.4
	c1.2,0.4,2.7,0.8,2.7,0.8s0.7,2.2,1.1,3.3c0,0.1,0.2,0.3,0.3,0.3c0.1,0,0.3,0,0.4-0.1c0.6-0.6,1.5-1.5,1.5-1.5S13.7,16.2,14.7,16.9z
	 M9.2,12.6l0.8,2.8l0.2-1.8c0,0,3.2-2.9,5.1-4.6c0.1,0,0.1-0.1,0-0.2c0-0.1-0.1-0.1-0.2,0C13,10.1,9.2,12.6,9.2,12.6z"/>
</svg>
